<?xml version="1.0" encoding="UTF-8"?>
<svg width="200" height="200" viewBox="0 0 200 200" xmlns="http://www.w3.org/2000/svg">
  <defs>
    <pattern id="cloud-pattern" x="0" y="0" width="100" height="100" patternUnits="userSpaceOnUse">
      <path d="M25,60 C25,40 40,25 60,25 C80,25 95,40 95,60 C95,80 80,95 60,95 C40,95 25,80 25,60 Z" 
            fill="none" 
            stroke="#B45309" 
            stroke-width="2"
            opacity="0.2"/>
      <path d="M55,35 C55,15 70,0 90,0 C110,0 125,15 125,35 C125,55 110,70 90,70 C70,70 55,55 55,35 Z" 
            fill="none" 
            stroke="#B45309" 
            stroke-width="2"
            opacity="0.2"/>
    </pattern>
  </defs>
  <rect width="100%" height="100%" fill="url(#cloud-pattern)"/>
</svg>
